<?xml version="1.0" encoding="UTF-8"?>
<svg id="Layer_1" data-name="Layer 1" xmlns="http://www.w3.org/2000/svg" viewBox="0 0 277.57 110.74">
  <defs>
    <style>
      .cls-1 {
        fill: #272525;
      }
    </style>
  </defs>
  <path class="cls-1" d="M27.99,103.62c8.59,4.73,18.32,7.13,28.93,7.13s20.4-2.42,29.08-7.2c8.73-4.81,15.66-11.5,20.58-19.89,3.51-5.98,5.73-12.56,6.74-19.61l-19.87-13.66v4.98c0,6.86-1.55,12.88-4.75,18.39-3.18,5.49-7.44,9.67-13.02,12.77-5.55,3.08-11.87,4.64-18.76,4.64s-13.17-1.56-18.67-4.63c-5.54-3.11-9.75-7.28-12.88-12.76-3.11-5.45-4.69-11.64-4.69-18.42s1.58-12.97,4.69-18.42c3.14-5.48,7.35-9.66,12.87-12.75,5.58-3.13,11.69-4.64,18.68-4.64s13.21,1.56,18.76,4.65c1.07.59,2.05,1.27,3.03,1.96l35.03,24.08,71.02,48.83c2.15,1.65,4.39,3.2,6.81,4.53,8.59,4.73,18.32,7.13,28.93,7.13s20.4-2.42,29.08-7.2c8.73-4.81,15.66-11.5,20.58-19.89,4.92-8.38,7.41-17.89,7.41-28.28s-2.49-19.89-7.41-28.28c-4.93-8.4-11.85-15.09-20.58-19.89-8.69-4.78-18.46-7.2-29.07-7.2s-20.35,2.4-28.94,7.13c-8.64,4.76-15.54,11.45-20.49,19.88-3.58,6.08-5.84,12.75-6.85,19.89l19.76,13.59h.28v-5.12c0-6.77,1.58-12.97,4.69-18.42,3.14-5.48,7.35-9.66,12.87-12.75,5.58-3.13,11.69-4.64,18.68-4.64s13.2,1.56,18.76,4.65c5.58,3.1,9.83,7.27,13.02,12.77,3.19,5.52,4.75,11.54,4.75,18.39s-1.56,12.88-4.75,18.39c-3.18,5.49-7.44,9.67-13.02,12.77-5.55,3.08-11.87,4.64-18.76,4.64s-14.18-1.78-19.74-4.89l-.03-.02L92.3,11.25c-.14-.1-.28-.19-.42-.29l-2.7-1.87-.1.09c-1.03-.66-2.01-1.38-3.1-1.97C77.3,2.42,67.52,0,56.92,0s-20.35,2.4-28.94,7.13c-8.64,4.76-15.54,11.45-20.49,19.88C2.51,35.45,0,44.99,0,55.37s2.51,19.93,7.48,28.36c4.96,8.44,11.86,15.12,20.5,19.88Z"/>
</svg>